<svg width="30" height="30" viewBox="0 0 30 30" fill="none" xmlns="http://www.w3.org/2000/svg">
<path d="M12.5495 13.3949C14.0285 15.8549 13.811 18.7499 12.042 19.9199C10.273 21.0599 7.634 19.9949 6.1405 17.5349C4.6615 15.0749 4.8935 12.1499 6.6625 11.0099C8.4315 9.86988 11.0705 10.9349 12.5495 13.3949ZM15 23.6249C17.9 23.6249 18.625 22.4999 18.625 22.4999C18.625 22.4999 17.9 25.4999 15 25.4999C12.1 25.4999 11.375 22.5449 11.375 22.4999C11.375 22.4999 12.1 23.6249 15 23.6249ZM23.3375 11.0099C25.1065 12.1499 25.3385 15.0749 23.8595 17.5349C22.366 19.9949 19.727 21.0599 17.958 19.9199C16.189 18.7499 15.9715 15.8549 17.4505 13.3949C18.9295 10.9349 21.5685 9.86988 23.3375 11.0099ZM15 26.9999C18.625 26.9999 26.6 19.2899 26.6 13.4999C26.6 7.70988 21.3945 2.99988 15 2.99988C8.6055 2.99988 3.4 7.70988 3.4 13.4999C3.4 19.2899 11.375 26.9999 15 26.9999ZM15 -0.00012207C22.975 -0.00012207 29.5 6.05988 29.5 13.4999C29.5 19.6199 21.264 29.9999 15 29.9999C8.736 29.9999 0.5 19.6199 0.5 13.4999C0.5 6.05988 7.025 -0.00012207 15 -0.00012207Z" fill="#02E4C0"/>
</svg>
